<svg width="26" height="29" viewBox="0 0 26 29" fill="none" xmlns="http://www.w3.org/2000/svg">
<g opacity="0.5" clip-path="url(#clip0_594_403)">
<path d="M24.8395 9.62598H1.13156C0.65867 9.62598 0.275391 9.19847 0.275391 8.67102V4.21612C0.275391 2.94794 1.20034 1.91626 2.33734 1.91626H23.634C24.7708 1.91626 25.696 2.94794 25.696 4.21612V8.67134C25.6957 9.19847 25.3124 9.62598 24.8395 9.62598ZM1.98773 7.71606H23.9834V4.21612C23.9834 4.00126 23.8264 3.82618 23.6338 3.82618H2.33734C2.1447 3.82618 1.98773 4.00094 1.98773 4.21612V7.71606Z" fill="black"/>
<path d="M23.4639 28.8083H2.5071C1.2765 28.8083 0.275635 27.6916 0.275635 26.3193V8.67103C0.275635 8.14357 0.658914 7.71606 1.13181 7.71606H24.8398C25.3127 7.71606 25.696 8.14357 25.696 8.67103V26.319C25.6957 27.6916 24.6945 28.8083 23.4639 28.8083ZM1.98769 9.62599V26.319C1.98769 26.6386 2.22057 26.8984 2.5071 26.8984H23.4639C23.7504 26.8984 23.9833 26.6386 23.9833 26.3193V9.62599H1.98769Z" fill="black"/>
<path d="M20.1074 5.5836C19.6345 5.5836 19.2512 5.1561 19.2512 4.62864V1.11438C19.2512 0.586928 19.6345 0.159424 20.1074 0.159424C20.5803 0.159424 20.9636 0.586928 20.9636 1.11438V4.62864C20.9636 5.15578 20.5803 5.5836 20.1074 5.5836Z" fill="black"/>
<path d="M5.86374 5.5836C5.39085 5.5836 5.00757 5.1561 5.00757 4.62864V1.11438C5.00757 0.586928 5.39085 0.159424 5.86374 0.159424C6.33663 0.159424 6.71991 0.586928 6.71991 1.11438V4.62864C6.71991 5.15578 6.33663 5.5836 5.86374 5.5836Z" fill="black"/>
</g>
<defs>
<clipPath id="clip0_594_403">
<rect width="26" height="29" fill="white"/>
</clipPath>
</defs>
</svg>
